<svg xmlns="http://www.w3.org/2000/svg" fill="white" width="50px" height="50px" viewBox="0 0 70 70"><path d="m59.3 48.6-5.5-2.9c-.4-.2-.8-.1-1 .3-.2.4-.1.8.3 1l5.5 2.9c2.3 1.2 3.8 3.6 3.8 6.3 0 .4.3.7.7.7s.7-.3.7-.7c0-3.2-1.7-6.1-4.5-7.6zm-9.9-5.3c-.4-.2-.8-.1-1 .3-.2.4-.1.8.3 1l1.1.6c.3.2.8.1 1-.3.2-.4.1-.8-.3-1l-1.1-.6zM14.3 55.5c-.4 0-.7.3-.7.7v.6c0 .4.3.7.7.7.4 0 .7-.3.7-.7v-.6c0-.4-.3-.7-.7-.7zm0 3.7c-.4 0-.7.3-.7.7v5.5c0 .4.3.7.7.7.4 0 .7-.3.7-.7v-5.5c0-.4-.3-.7-.7-.7z"/><path d="M62.8 67.5H60V56.2c0-1.7-.9-3.3-2.5-4.1l-11.2-6c-1.3-1.4-2.6-2.2-4.2-2.5h-.2v-2.9c2.9-1.8 5.1-4.7 5.9-8.2H50c.9 0 1.6-.7 1.7-1.5 2.6-.4 4.6-2.6 4.6-5.3 0-2.2-1.3-4-3.1-4.9v-1.6C53.1 9.2 44.9 1 34.8 1S16.5 9.2 16.5 19.3v1.6c-1.8.8-3.1 2.7-3.1 4.9 0 2.7 2 4.9 4.6 5.3.1.9.8 1.5 1.7 1.5h2.2c.8 3.5 3 6.4 5.9 8.2v2.9h-.2c-1.8.2-3 1.1-4.3 2.5l-11.2 6c-1.5.8-2.5 2.4-2.5 4.1v11.4H6.9c-.4 0-.7.3-.7.7 0 .4.3.7.7.7h55.9c.4 0 .7-.3.7-.7 0-.5-.3-.9-.7-.9zM42.2 45.1c1 .3 1.9.7 2.8 1.7-1.2 2.6-3.1 4.6-5.3 6.5-.7-2-1.9-3.4-3-4.1 1.9-1 4.1-2.5 5.5-4.1zm-7.4 3.3c-2-.8-4-2-5.5-3.5v-3.4c3.6 1.6 7.6 1.6 11 0v3.4c-1.5 1.5-3.5 2.6-5.5 3.5zm15.4-17.5c0 .1-.1.3-.3.3h-2.1c-.2 0-.3-.1-.3-.3v-10c0-.1.1-.3.3-.3H50c.1 0 .3.1.3.3v10zM18.1 20.5c-.1 0-.1 0 0 0l-.1-1.2C18 10 25.5 2.5 34.8 2.5s16.9 7.6 16.9 16.9v1.2h-.1c-.2-.6-.7-1.1-1.3-1.2-.2-8.4-7.1-15.1-15.5-15.1S19.5 11 19.3 19.4c-.6 0-1 .4-1.2 1.1zm4 10.4c0 .1-.1.3-.3.3h-2.1c-.1 0-.3-.1-.3-.3v-10c0-.1.1-.3.3-.3h2.1c.1 0 .3.1.3.3v10zm1.1.9c.2-.3.3-.7.3-.9v-10c0-.3-.1-.6-.2-.7.1-.3.1-.5.2-.8.6-2 2.5-3.4 4.7-3.4 4.7-.1 7-2.1 8-3.5.9 2.2 3.4 5.9 9.5 8.1h.1c.2.1.3.2.4.2v10c0 .3.1.7.3.9-.8 3.7-3.3 7-7.1 8.6-6.8 2.8-14.7-1-16.2-8.5zm4.3 13.3c1.1 1.3 3.2 2.9 5.5 4.1-1.4.9-2.4 2.5-3 4.1-2.2-1.8-4.1-3.9-5.3-6.5.9-.9 1.7-1.5 2.8-1.7zM11.2 67.5V56.2c0-1.2.7-2.3 1.7-2.9l10.7-5.7c1.5 3 3.8 5.5 6.4 7.4.4.3 1 .1 1.2-.4.1-.5.3-1.1.5-1.6l.5 2.1-2.9 12.4H11.2zm47.3 0H40.3l-2.9-12.4.6-2.1c.4.9.5 1.6.5 1.6.1.6.8.7 1.2.4 2.6-2 5-4.5 6.4-7.4l10.6 5.7c1.1.6 1.7 1.7 1.7 2.9v11.3z"/><path d="M38.6 34.1c-.3-.3-.7-.3-1 0-1.5 1.5-4 1.5-5.6 0-.3-.3-.7-.3-1 0-.3.3-.3.7 0 1 2.1 2.1 5.5 2.1 7.6 0 .3-.3.3-.8 0-1zm-3.8-2.4c.4 0 .7-.3.7-.7v-1.8c0-.4-.3-.7-.7-.7s-.7.3-.7.7V31c0 .3.3.7.7.7zm-2.9-4.5c0-1.3-1.1-2.4-2.4-2.4-1.3 0-2.4 1.1-2.4 2.4 0 .4.3.7.7.7.4 0 .7-.3.7-.7 0-.5.4-.9.9-.9s.9.4.9.9c0 .4.3.7.7.7.6.1.9-.3.9-.7zm8.2-2.4c-1.3 0-2.4 1.1-2.4 2.4 0 .4.3.7.7.7s.7-.3.7-.7c0-.5.4-.9.9-.9s.9.4.9.9c0 .4.3.7.7.7s.7-.3.7-.7c.2-1.3-.8-2.4-2.2-2.4zm-8.4-1.4c.4 0 .7-.3.7-.7s-.3-.7-.7-.7h-4.3c-.4 0-.7.3-.7.7s.3.7.7.7h4.3zm6.3 0h4.3c.4 0 .7-.3.7-.7s-.3-.7-.7-.7H38c-.4 0-.7.3-.7.7s.3.7.7.7z"/></svg>