<svg xmlns="http://www.w3.org/2000/svg" viewBox="0 0 48 48"><path d="M46 47.11c0-.11.2-28.28-.24-28.77-.16-.17-.49-.43-5.74-4.68 0-6.15 0-5.78-.08-6s.34.22-7.21-7.33C32.28-.13 34 0 9 0a1 1 0 0 0-1 1v12.66c-6 4.87-5.8 4.62-5.93 5S2 19.74 2 47a1 1 0 0 0 1 1c43.55 0 42.84.39 43-.89ZM4 21.1l15.63 12.65L4 45ZM21.28 35a4.93 4.93 0 0 0 5.44 0l15.19 11H6.09Zm7.09-1.28L44 21.1V45ZM33 3.41 36.59 7H33ZM43.41 19 40 21.76v-5.52ZM31 2v6a1 1 0 0 0 1 1h6v14.38l-12.11 9.81a3 3 0 0 1-3.78 0L10 23.38V2ZM8 21.76 4.59 19 8 16.24Z"/><path d="M13 9h10a1 1 0 0 0 0-2H13a1 1 0 0 0 0 2zm0 4h14a1 1 0 0 0 0-2H13a1 1 0 0 0 0 2zm0 4h14a1 1 0 0 0 0-2H13a1 1 0 0 0 0 2zm0 4h4a1 1 0 0 0 0-2h-4a1 1 0 0 0 0 2z"/></svg>